<?xml version="1.0" encoding="utf-8"?>
<!-- Generator: Adobe Illustrator 23.0.4, SVG Export Plug-In . SVG Version: 6.00 Build 0)  -->
<svg version="1.1" id="Laag_1" xmlns="http://www.w3.org/2000/svg" xmlns:xlink="http://www.w3.org/1999/xlink" x="0px" y="0px"
	 viewBox="0 0 86.7 40.3" style="enable-background:new 0 0 86.7 40.3;" xml:space="preserve">
<style type="text/css">
	.st0{fill:#FFFFFF;}
	.st1{opacity:0.67;fill:#FFFFFF;enable-background:new    ;}
</style>
<g>
	
		<image style="overflow:visible;opacity:0.9;" width="203" height="204" xlink:href="C55B0DBEBA2B5AAC.png"  transform="matrix(0.24 0 0 0.24 1.4079 -4.5304)">
	</image>
	<g>
		<circle class="st0" cx="25.8" cy="19.9" r="15.8"/>
	</g>
</g>
<g>
	
		<image style="overflow:visible;opacity:0.9;" width="204" height="204" xlink:href="C55B0DBEBA2B5AAD.png"  transform="matrix(0.24 0 0 0.24 38.8479 -5.0104)">
	</image>
	<g>
		<circle class="st0" cx="63.4" cy="19.4" r="15.8"/>
	</g>
</g>
<g transform="matrix(1, 0, 0, 1, 0, 0)">
	<circle id="Ellipse_1-2" class="st1" cx="411.8" cy="264.5" r="17"/>
</g>
<g transform="matrix(1, 0, 0, 1, 0, 0)">
	<circle id="Ellipse_2-2" class="st1" cx="368.8" cy="264.5" r="17"/>
</g>
<image style="overflow:visible;enable-background:new    ;" width="250" height="250" id="flag-round-250_2_" xlink:href="C55B0DBEBA2B5AAB.png"  transform="matrix(0.1104 0 0 0.1104 49.5557 5.6324)">
</image>
<image style="overflow:visible;" width="2000" height="2000" xlink:href="../../../Desktop/Suits/us-01.png"  transform="matrix(1.397955e-02 0 0 1.397955e-02 11.7984 5.9532)">
</image>
</svg>
