<?xml version="1.0" encoding="utf-8"?>
<!-- Generator: Adobe Illustrator 23.0.4, SVG Export Plug-In . SVG Version: 6.00 Build 0)  -->
<svg version="1.1" id="Laag_1" xmlns="http://www.w3.org/2000/svg" xmlns:xlink="http://www.w3.org/1999/xlink" x="0px" y="0px"
	 viewBox="0 0 213.5 59.2" style="enable-background:new 0 0 213.5 59.2;" xml:space="preserve">
<style type="text/css">
	.st0{fill:#1C4294;}
	.st1{fill:#FFFFFF;}
	.st2{fill:#D42D1E;}
	.st3{enable-background:new    ;}
</style>
<g>
	<path class="st0" d="M141.2,53.2H6.2c-1.9,0-3.5-1.5-3.5-3.5V9.9c0-1.9,1.5-3.5,3.5-3.5h135c1.9,0,3.5,1.5,3.5,3.5v39.8
		C144.7,51.7,143.2,53.2,141.2,53.2z"/>
</g>
<g>
	<path class="st1" d="M27.8,23.7h2v12h7.4v1.7h-9.4V23.7z"/>
	<path class="st1" d="M38.1,32.2c0-3.1,2.3-5.3,5.4-5.3c3.1,0,5.4,2.2,5.4,5.3s-2.3,5.3-5.4,5.3C40.3,37.5,38.1,35.3,38.1,32.2z
		 M46.9,32.2c0-2.2-1.5-3.6-3.5-3.6c-2,0-3.5,1.4-3.5,3.6s1.5,3.7,3.5,3.7C45.5,35.9,46.9,34.4,46.9,32.2z"/>
	<path class="st1" d="M61.4,27v9c0,3.7-1.9,5.3-5.4,5.3c-1.9,0-3.8-0.5-5-1.5l0.9-1.4c1,0.8,2.5,1.4,4,1.4c2.4,0,3.6-1.1,3.6-3.5
		v-0.8c-0.9,1.1-2.3,1.6-3.7,1.6c-3,0-5.3-2-5.3-5s2.3-5,5.3-5c1.5,0,3,0.6,3.8,1.7V27H61.4z M59.5,31.9c0-2-1.5-3.4-3.6-3.4
		c-2.1,0-3.6,1.4-3.6,3.4c0,2,1.5,3.4,3.6,3.4C58,35.3,59.5,33.9,59.5,31.9z"/>
	<path class="st1" d="M69.9,23.8c0-0.7,0.5-1.2,1.3-1.2c0.7,0,1.3,0.5,1.3,1.2c0,0.7-0.5,1.3-1.3,1.3C70.4,25,69.9,24.5,69.9,23.8z
		 M70.2,27h1.9v10.4h-1.9V27z"/>
	<path class="st1" d="M85.5,31.4v6h-1.9v-5.8c0-2-1-3-2.8-3c-2,0-3.3,1.2-3.3,3.4v5.3h-1.9V27h1.8v1.6c0.8-1.1,2.1-1.7,3.7-1.7
		C83.7,26.9,85.5,28.4,85.5,31.4z"/>
</g>
<g>
	<path class="st1" d="M134.6,44.1h-29.3V14.8h29.3V44.1z M106.3,43.1h27.3V15.8h-27.3V43.1z"/>
</g>
<g>
	<polygon class="st1" points="118.1,37.7 117.4,37 124.5,29.8 117.4,22.7 118.1,22 125.9,29.8 	"/>
</g>
<g id="Rectangle_4">
	<path class="st0" d="M156.9,7.3h48.7c1.7,0,3,1.3,3,3v40.5c0,1.7-1.3,3-3,3h-48.7c-1.7,0-3-1.3-3-3V10.3
		C153.9,8.7,155.3,7.3,156.9,7.3z"/>
</g>
<g id="_004-shopping-bag" transform="translate(14.17 4.29)">
	<g id="Path_61">
		<path class="st1" d="M180.3,17.3h-6.1v-3.5c0-3.6-2.9-6.5-6.5-6.5c-3.6,0-6.5,2.9-6.5,6.5v3.5h-6.5c-0.4,0-0.7,0.3-0.7,0.7
			c0,0,0,0,0,0v17c0,3.7,3,6.7,6.7,6.7h13.7c3.7,0,6.7-3,6.7-6.7v-17C181,17.7,180.7,17.3,180.3,17.3
			C180.3,17.3,180.3,17.3,180.3,17.3z M162.7,13.8c0-2.8,2.2-5,5-5c2.8,0,5,2.2,5,5v3.5h-10V13.8z M179.5,35.1
			c0,2.9-2.3,5.2-5.2,5.2h-13.7c-2.9,0-5.2-2.3-5.2-5.2V18.8h5.8v8.4c0,0.4,0.3,0.7,0.7,0.7s0.7-0.3,0.7-0.7l0,0v-8.4h10v8.4
			c0,0.4,0.3,0.7,0.7,0.7s0.7-0.3,0.7-0.7v-8.4h5.4V35.1z"/>
	</g>
</g>
<g id="Ellipse_3">
	<circle class="st2" cx="195.1" cy="40.1" r="9"/>
</g>
<g class="st3">
	<path class="st1" d="M195.1,45.6c-0.7,0-1.2-0.1-1.7-0.4c-0.4-0.3-0.8-0.6-1.1-1.1c-0.3-0.5-0.5-1-0.6-1.6c-0.1-0.6-0.2-1.3-0.2-2
		c0-0.7,0.1-1.4,0.2-2c0.1-0.6,0.3-1.2,0.6-1.6c0.3-0.5,0.6-0.8,1.1-1.1c0.4-0.3,1-0.4,1.7-0.4s1.2,0.1,1.7,0.4
		c0.4,0.3,0.8,0.6,1.1,1.1c0.3,0.5,0.5,1,0.6,1.6c0.1,0.6,0.2,1.3,0.2,2c0,0.7-0.1,1.4-0.2,2c-0.1,0.6-0.3,1.2-0.6,1.6
		c-0.3,0.5-0.6,0.8-1.1,1.1C196.3,45.5,195.8,45.6,195.1,45.6z M195.1,44.3c0.4,0,0.7-0.1,1-0.3c0.3-0.2,0.5-0.5,0.6-0.8
		c0.2-0.3,0.3-0.8,0.3-1.2c0.1-0.5,0.1-1,0.1-1.5c0-0.5,0-1-0.1-1.5c-0.1-0.5-0.2-0.9-0.3-1.2s-0.4-0.6-0.6-0.8
		c-0.3-0.2-0.6-0.3-1-0.3s-0.7,0.1-1,0.3c-0.3,0.2-0.5,0.5-0.6,0.8s-0.3,0.8-0.3,1.2s-0.1,1-0.1,1.5c0,0.5,0,1,0.1,1.5
		c0.1,0.5,0.2,0.9,0.3,1.2c0.2,0.3,0.4,0.6,0.6,0.8C194.4,44.2,194.7,44.3,195.1,44.3z"/>
</g>
</svg>
