<?xml version="1.0" encoding="utf-8"?>
<!-- Generator: Adobe Illustrator 23.0.4, SVG Export Plug-In . SVG Version: 6.00 Build 0)  -->
<svg version="1.1" id="Laag_1" xmlns="http://www.w3.org/2000/svg" xmlns:xlink="http://www.w3.org/1999/xlink" x="0px" y="0px"
	 viewBox="0 0 189.2 59.7" style="enable-background:new 0 0 189.2 59.7;" xml:space="preserve">
<style type="text/css">
	.st0{fill:#010202;}
	.st1{fill:#1C4294;}
</style>
<g>
	<path class="st0" d="M7.8,34.8c0-0.3,0.1-1.1,0.1-2.1c0-1.5-0.2-2.7-0.2-3c0-0.1,0.1-0.2,0.2-0.2c0.1,0,0.2,0,0.2,0.2
		c1.1,2.5,2.4,4.9,5.6,4.9c2,0,3.1-1.1,3.1-2.7c0-1.5-0.8-2.3-3.4-2.9L12,28.7c-2.8-0.7-4.1-2-4.1-4.1c0-2.7,2.5-4.1,5-4.1
		c2.5,0,3.5,1.1,4.2,1.1c0.4,0,0.4-0.3,0.5-0.7c0-0.3,0.1-0.4,0.2-0.4c0.1,0,0.2,0.1,0.2,0.2c0,0.2,0,1.2,0.1,2
		c0.1,0.7,0.3,2.3,0.3,2.5c0,0.1-0.1,0.1-0.2,0.1c-0.1,0-0.2-0.1-0.2-0.2c-1-2.3-2.3-4.3-5-4.3c-1.8,0-2.9,1-2.9,2.4
		c0,1.4,1,2,3,2.5l1.9,0.5c2.8,0.7,4.2,1.9,4.2,4.2c0,3-2.6,4.6-5.5,4.6C11.2,35,9.7,34,8.9,34c-0.4,0-0.6,0.2-0.7,0.8
		C8.2,35,8.1,35,8,35C7.9,35,7.8,35,7.8,34.8z"/>
	<path class="st0" d="M26,28.4v-4.9c0-1.5-0.1-1.9-0.8-2.3c-0.3-0.1-0.4-0.2-0.4-0.3c0-0.1,0-0.1,0.2-0.1c0.2,0,1.5,0.1,2.6,0.1
		c1.1,0,2.5-0.1,2.8-0.1c0.1,0,0.2,0,0.2,0.1c0,0.1-0.1,0.2-0.5,0.4c-0.6,0.3-0.8,0.6-0.8,2.6l0,5.4c0,3.2,1.4,4.8,3.9,4.8
		c2,0,4.1-1.4,4.1-5.6v-4.8c0-1.8-0.5-2.3-1.5-2.6c-0.2-0.1-0.3-0.1-0.3-0.2c0-0.1,0-0.1,0.2-0.1c0.2,0,1.1,0.1,1.9,0.1
		c0.9,0,1.7-0.1,1.9-0.1c0.1,0,0.1,0,0.1,0.1c0,0.1-0.2,0.2-0.5,0.3c-0.9,0.3-1.2,0.9-1.2,2.8v4.6c0,4.7-2.2,6.5-5.4,6.5
		C28.4,35,26,33.2,26,28.4z"/>
	<path class="st0" d="M45.3,34.8c0-0.3,0.1-1.1,0.1-2.1c0-1.5-0.2-2.7-0.2-3c0-0.1,0.1-0.2,0.2-0.2c0.1,0,0.2,0,0.2,0.2
		c1.1,2.5,2.4,4.9,5.6,4.9c2,0,3.1-1.1,3.1-2.7c0-1.5-0.8-2.3-3.4-2.9l-1.5-0.4c-2.8-0.7-4.1-2-4.1-4.1c0-2.7,2.5-4.1,5-4.1
		c2.5,0,3.5,1.1,4.2,1.1c0.4,0,0.4-0.3,0.5-0.7c0-0.3,0.1-0.4,0.2-0.4c0.1,0,0.2,0.1,0.2,0.2c0,0.2,0,1.2,0.1,2
		c0.1,0.7,0.3,2.3,0.3,2.5c0,0.1-0.1,0.1-0.2,0.1c-0.1,0-0.2-0.1-0.2-0.2c-1-2.3-2.3-4.3-5-4.3c-1.8,0-2.9,1-2.9,2.4
		c0,1.4,1,2,3,2.5l1.9,0.5c2.8,0.7,4.2,1.9,4.2,4.2c0,3-2.6,4.6-5.5,4.6c-2.5,0-3.9-1.1-4.7-1.1c-0.4,0-0.6,0.2-0.7,0.8
		c0,0.2-0.1,0.3-0.2,0.3C45.4,35,45.3,35,45.3,34.8z"/>
	<path class="st0" d="M67.6,30.7v0.9c0,2,0.3,2.6,0.9,2.8c0.4,0.2,0.6,0.2,0.6,0.3c0,0.1,0,0.1-0.2,0.1c-0.2,0-1.8-0.2-3-0.2
		c-1.1,0-2.6,0.2-2.8,0.2c-0.1,0-0.2,0-0.2-0.1c0-0.1,0.1-0.2,0.4-0.3c0.8-0.3,0.9-0.8,0.9-6.7c0-5.8,0-6.2-0.9-6.6
		C63.1,21,63,20.9,63,20.8c0-0.1,0-0.1,0.2-0.1c0.2,0,1.6,0.2,2.7,0.2c1.2,0,2.7-0.2,3.5-0.2c4.4,0,6.5,1.9,6.5,4.9
		c0,3.1-2.4,5.3-5.9,5.3c-1.3,0-2.1-0.3-2.3-0.3C67.6,30.6,67.6,30.6,67.6,30.7z M67.5,27.4c0,1.5,0,2.2,0.2,2.5
		c0.1,0.3,0.6,0.4,1.4,0.4c2.2,0,3.4-1.7,3.5-4.8c0-3.2-1.1-4.6-3.2-4.6c-0.7,0-1.2,0.2-1.4,0.4C67.6,21.7,67.5,22.2,67.5,27.4z"/>
	<path class="st0" d="M82,34.7c0-0.1,0.1-0.2,0.4-0.3c0.8-0.3,0.8-0.9,0.8-6.7c0-5.6,0-6.3-0.8-6.6C82.1,21,82,21,82,20.8
		c0-0.1,0-0.1,0.2-0.1c0.2,0,1.5,0.1,2.6,0.1c1.1,0,2.4-0.1,2.6-0.1c0.1,0,0.2,0.1,0.2,0.1c0,0.1-0.1,0.2-0.4,0.3
		c-0.8,0.3-0.8,1-0.8,6.6c0,5.7,0,6.4,0.8,6.7c0.3,0.1,0.4,0.2,0.4,0.3c0,0.1,0,0.1-0.2,0.1c-0.2,0-1.6-0.1-2.6-0.1
		c-1.1,0-2.4,0.1-2.6,0.1C82,34.8,82,34.8,82,34.7z"/>
	<path class="st0" d="M106.7,29.3c0,0.3-0.2,1.9-0.2,5.6c0,0.1-0.1,0.2-0.2,0.2c-0.1,0-0.2,0-0.2-0.4c0-0.6-0.3-0.8-0.7-0.8
		c-0.9,0-2.2,1.1-4.5,1.1c-4.2,0-7.3-2.9-7.3-7.2c0-4.3,3.2-7.3,7.4-7.3c2.1,0,3.4,1,4,1c0.3,0,0.4-0.2,0.5-0.7
		c0-0.3,0.1-0.4,0.2-0.4c0.1,0,0.2,0,0.2,0.2c0,0.2,0,0.8,0.1,2.5c0.2,2.4,0.4,3.1,0.4,3.3c0,0.1,0,0.1-0.1,0.1
		c-0.1,0-0.2,0-0.2-0.2l-0.2-0.9c-0.9-3.2-2.5-4.8-4.7-4.8c-2.1,0-4.1,1.4-4.1,7c0,5.5,1.8,6.9,4,6.9c2.1,0,4.2-1.1,4.8-4.1l0.3-1.3
		c0-0.2,0.1-0.2,0.2-0.2C106.6,29.1,106.7,29.2,106.7,29.3z"/>
	<path class="st0" d="M113.3,34.7c0-0.1,0.1-0.2,0.4-0.3c0.8-0.3,0.8-0.9,0.8-6.7c0-5.6,0-6.3-0.8-6.6c-0.3-0.1-0.4-0.1-0.4-0.3
		c0-0.1,0-0.1,0.2-0.1c0.2,0,1.5,0.1,2.6,0.1c1.1,0,2.4-0.1,2.6-0.1c0.1,0,0.2,0.1,0.2,0.1c0,0.1-0.1,0.2-0.4,0.3
		c-0.8,0.3-0.8,1-0.8,6.6c0,5.7,0,6.4,0.8,6.7c0.3,0.1,0.4,0.2,0.4,0.3c0,0.1,0,0.1-0.2,0.1c-0.2,0-1.6-0.1-2.6-0.1
		c-1.1,0-2.4,0.1-2.6,0.1C113.4,34.8,113.3,34.8,113.3,34.7z"/>
	<path class="st0" d="M139.8,27.7c0,4.3-3.1,7.3-7.4,7.3c-4.3,0-7.4-3-7.4-7.3c0-4.3,3.1-7.3,7.4-7.3
		C136.7,20.4,139.8,23.4,139.8,27.7z M136.3,27.7c0-5.2-1.6-7-3.8-7c-2.2,0-3.8,1.8-3.8,7c0,5,1.6,7,3.8,7
		C134.7,34.7,136.3,32.8,136.3,27.7z"/>
	<path class="st0" d="M146.5,28.4v-4.9c0-1.5-0.1-1.9-0.8-2.3c-0.3-0.1-0.4-0.2-0.4-0.3c0-0.1,0-0.1,0.2-0.1c0.2,0,1.5,0.1,2.6,0.1
		c1.1,0,2.5-0.1,2.8-0.1c0.1,0,0.2,0,0.2,0.1c0,0.1-0.1,0.2-0.5,0.4c-0.6,0.3-0.8,0.6-0.8,2.6l0,5.4c0,3.2,1.4,4.8,3.9,4.8
		c2,0,4.1-1.4,4.1-5.6v-4.8c0-1.8-0.5-2.3-1.5-2.6c-0.2-0.1-0.3-0.1-0.3-0.2c0-0.1,0-0.1,0.2-0.1c0.2,0,1.1,0.1,1.9,0.1
		c0.9,0,1.7-0.1,1.9-0.1c0.1,0,0.1,0,0.1,0.1c0,0.1-0.2,0.2-0.5,0.3c-0.9,0.3-1.2,0.9-1.2,2.8v4.6c0,4.7-2.2,6.5-5.4,6.5
		C148.9,35,146.5,33.2,146.5,28.4z"/>
	<path class="st0" d="M165.8,34.8c0-0.3,0.1-1.1,0.1-2.1c0-1.5-0.2-2.7-0.2-3c0-0.1,0.1-0.2,0.2-0.2c0.1,0,0.2,0,0.2,0.2
		c1.1,2.5,2.4,4.9,5.6,4.9c2,0,3.1-1.1,3.1-2.7c0-1.5-0.8-2.3-3.4-2.9l-1.5-0.4c-2.8-0.7-4.1-2-4.1-4.1c0-2.7,2.5-4.1,5-4.1
		c2.5,0,3.5,1.1,4.2,1.1c0.4,0,0.4-0.3,0.5-0.7c0-0.3,0.1-0.4,0.2-0.4c0.1,0,0.2,0.1,0.2,0.2c0,0.2,0,1.2,0.1,2
		c0.1,0.7,0.3,2.3,0.3,2.5c0,0.1-0.1,0.1-0.2,0.1c-0.1,0-0.2-0.1-0.2-0.2c-1-2.3-2.3-4.3-5-4.3c-1.8,0-2.9,1-2.9,2.4
		c0,1.4,1,2,3,2.5l1.9,0.5c2.8,0.7,4.2,1.9,4.2,4.2c0,3-2.6,4.6-5.5,4.6c-2.5,0-3.9-1.1-4.7-1.1c-0.4,0-0.6,0.2-0.7,0.8
		c0,0.2-0.1,0.3-0.2,0.3C165.9,35,165.8,35,165.8,34.8z"/>
</g>
<g>
	<path class="st0" d="M11.1,47.8c1,0,1.7,0.8,1.7,1.8c0,1.3-1,1.9-1.7,1.9c-1.1,0-1.8-0.9-1.8-1.8C9.3,48.4,10.3,47.8,11.1,47.8z
		 M11,48c-0.5,0-0.9,0.5-0.9,1.4c0,1,0.4,1.8,1.1,1.8c0.5,0,0.9-0.4,0.9-1.5C12.1,48.8,11.7,48,11,48z"/>
	<path class="st0" d="M19.6,51.4v-0.2c0.5,0,0.5-0.1,0.5-0.6v-1.3c0-0.6-0.2-0.9-0.7-0.9c-0.3,0-0.6,0.2-0.9,0.4v1.9
		c0,0.6,0,0.6,0.5,0.6v0.2h-1.7v-0.2c0.5-0.1,0.6-0.1,0.6-0.6v-1.6c0-0.5-0.1-0.5-0.5-0.6v-0.2c0.4-0.1,0.8-0.2,1.1-0.3
		c0,0.2,0,0.4,0,0.6c0.2-0.1,0.3-0.2,0.5-0.4c0.2-0.1,0.4-0.2,0.7-0.2c0.6,0,1,0.5,1,1.2v1.5c0,0.5,0,0.6,0.5,0.6v0.2H19.6z"/>
	<path class="st0" d="M28.7,50.7c-0.5,0.6-1.1,0.8-1.3,0.8c-1,0-1.6-0.8-1.6-1.7c0-0.5,0.2-1,0.5-1.4c0.3-0.4,0.8-0.6,1.2-0.6
		c0.7,0,1.2,0.6,1.2,1.2c0,0.2,0,0.2-0.2,0.3c-0.2,0-1.2,0.1-2.1,0.1c0,1.1,0.6,1.5,1.2,1.5c0.3,0,0.6-0.1,0.9-0.4L28.7,50.7z
		 M27.3,48.1c-0.4,0-0.7,0.3-0.8,1c0.4,0,0.9,0,1.4,0c0.1,0,0.2,0,0.2-0.2C28,48.4,27.8,48.1,27.3,48.1z"/>
	<path class="st1" d="M40.4,48.6c0.5,0,0.9,0.4,0.9,1c0,0.6-0.4,1-0.9,1c-0.6,0-1-0.4-1-1C39.4,49.1,39.9,48.6,40.4,48.6z"/>
	<path class="st0" d="M54.2,48.8c-0.1-0.5-0.4-0.8-0.8-0.8c-0.3,0-0.5,0.2-0.5,0.5c0,0.3,0.2,0.5,0.7,0.7c0.7,0.3,1,0.6,1,1.1
		c0,0.7-0.7,1.1-1.3,1.1c-0.4,0-0.8-0.1-1-0.2c0-0.2-0.1-0.7-0.1-0.9l0.2,0c0.1,0.5,0.4,0.9,1,0.9c0.3,0,0.6-0.2,0.6-0.5
		c0-0.4-0.2-0.5-0.6-0.8c-0.6-0.3-1-0.5-1-1.1c0-0.6,0.5-1,1.2-1c0.3,0,0.6,0.1,0.8,0.1c0,0.2,0.1,0.7,0.1,0.9L54.2,48.8z"/>
	<path class="st0" d="M59.1,51.4v-0.2c0.5,0,0.6-0.1,0.6-0.6v-1.6c0-0.5,0-0.5-0.5-0.6v-0.2c0.4-0.1,0.8-0.2,1.1-0.3
		c0,0.3,0,0.7,0,1v1.8c0,0.5,0.1,0.6,0.6,0.6v0.2H59.1z M59.9,47c-0.2,0-0.4-0.2-0.4-0.4c0-0.3,0.2-0.4,0.4-0.4
		c0.2,0,0.4,0.2,0.4,0.4C60.4,46.8,60.2,47,59.9,47z"/>
	<path class="st0" d="M68.3,50.3c-0.1,0.3-0.3,0.8-0.3,1h-2.7l0-0.1c0.7-1,1.4-2.1,2-3.1c0,0-0.8,0-0.8,0c-0.6,0-0.7,0.1-1,0.8
		l-0.2-0.1c0.1-0.3,0.2-0.8,0.2-1.2h0.2c0,0.1,0.2,0.2,0.4,0.2h1.9l0,0.1c-0.6,1-1.3,2-2,3.1H67c0.6,0,0.8-0.2,1.2-0.8L68.3,50.3z"
		/>
	<path class="st0" d="M75.6,50.7c-0.5,0.6-1.1,0.8-1.3,0.8c-1,0-1.6-0.8-1.6-1.7c0-0.5,0.2-1,0.5-1.4c0.3-0.4,0.8-0.6,1.2-0.6
		c0.7,0,1.2,0.6,1.2,1.2c0,0.2,0,0.2-0.2,0.3c-0.2,0-1.2,0.1-2.1,0.1c0,1.1,0.6,1.5,1.2,1.5c0.3,0,0.6-0.1,0.9-0.4L75.6,50.7z
		 M74.2,48.1c-0.4,0-0.7,0.3-0.8,1c0.4,0,0.9,0,1.4,0c0.1,0,0.2,0,0.2-0.2C75,48.4,74.7,48.1,74.2,48.1z"/>
	<path class="st1" d="M87.3,48.6c0.5,0,0.9,0.4,0.9,1c0,0.6-0.4,1-0.9,1c-0.6,0-1-0.4-1-1C86.4,49.1,86.8,48.6,87.3,48.6z"/>
	<path class="st0" d="M101.1,48.8c-0.1-0.5-0.4-0.8-0.8-0.8c-0.3,0-0.5,0.2-0.5,0.5c0,0.3,0.2,0.5,0.7,0.7c0.7,0.3,1,0.6,1,1.1
		c0,0.7-0.7,1.1-1.3,1.1c-0.4,0-0.8-0.1-1-0.2c0-0.2-0.1-0.7-0.1-0.9l0.2,0c0.1,0.5,0.4,0.9,1,0.9c0.3,0,0.6-0.2,0.6-0.5
		c0-0.4-0.2-0.5-0.6-0.8c-0.6-0.3-1-0.5-1-1.1c0-0.6,0.5-1,1.2-1c0.3,0,0.6,0.1,0.8,0.1c0,0.2,0.1,0.7,0.1,0.9L101.1,48.8z"/>
	<path class="st0" d="M109.8,51.2c-0.4,0.1-0.8,0.2-1.2,0.3c0-0.1,0-0.4,0-0.6c-0.4,0.4-0.8,0.6-1.2,0.6c-0.5,0-1-0.3-1-1.2v-1.6
		c0-0.4-0.1-0.5-0.3-0.5l-0.2,0v-0.2c0.3,0,0.9-0.1,1.1-0.1c0,0.3,0,0.6,0,1.2v1.1c0,0.7,0.4,0.9,0.7,0.9c0.3,0,0.6-0.1,0.9-0.4
		v-1.9c0-0.4-0.1-0.5-0.4-0.5l-0.3,0v-0.2c0.5,0,1.1-0.1,1.3-0.1v2.7c0,0.4,0.1,0.5,0.4,0.5l0.2,0V51.2z"/>
	<path class="st0" d="M114.2,51.4v-0.2c0.5,0,0.6-0.1,0.6-0.6v-1.6c0-0.5,0-0.5-0.5-0.6v-0.2c0.4-0.1,0.8-0.2,1.1-0.3
		c0,0.3,0,0.7,0,1v1.8c0,0.5,0.1,0.6,0.6,0.6v0.2H114.2z M115.1,47c-0.2,0-0.4-0.2-0.4-0.4c0-0.3,0.2-0.4,0.4-0.4
		c0.2,0,0.4,0.2,0.4,0.4C115.5,46.8,115.3,47,115.1,47z"/>
	<path class="st0" d="M121.9,51.4c-0.1,0.1-0.3,0.1-0.3,0.1c-0.5,0-0.8-0.3-0.8-1v-2.3h-0.6l0-0.1l0.2-0.2h0.4v-0.7
		c0.2-0.2,0.4-0.4,0.5-0.5l0.1,0c0,0.3,0,0.8,0,1.2h0.9c0.1,0.1,0,0.3,0,0.3h-0.9v2c0,0.6,0.3,0.8,0.5,0.8c0.2,0,0.4-0.1,0.5-0.1
		l0.1,0.2L121.9,51.4z"/>
	<path class="st0" d="M128.9,48.8c-0.1-0.5-0.4-0.8-0.8-0.8c-0.3,0-0.5,0.2-0.5,0.5c0,0.3,0.2,0.5,0.7,0.7c0.7,0.3,1,0.6,1,1.1
		c0,0.7-0.7,1.1-1.3,1.1c-0.4,0-0.8-0.1-1-0.2c0-0.2-0.1-0.7-0.1-0.9l0.2,0c0.1,0.5,0.4,0.9,1,0.9c0.3,0,0.6-0.2,0.6-0.5
		c0-0.4-0.2-0.5-0.6-0.8c-0.6-0.3-1-0.5-1-1.1c0-0.6,0.5-1,1.2-1c0.3,0,0.6,0.1,0.8,0.1c0,0.2,0.1,0.7,0.1,0.9L128.9,48.8z"/>
</g>
</svg>
