<?xml version="1.0" encoding="utf-8"?>
<!-- Generator: Adobe Illustrator 23.0.4, SVG Export Plug-In . SVG Version: 6.00 Build 0)  -->
<svg version="1.1" id="Laag_1" xmlns="http://www.w3.org/2000/svg" xmlns:xlink="http://www.w3.org/1999/xlink" x="0px" y="0px"
	 viewBox="0 0 208.6 55" style="enable-background:new 0 0 208.6 55;" xml:space="preserve">
<style type="text/css">
	.st0{fill:#FFFFFF;}
</style>
<g>
	<path class="st0" d="M9.1,43.6C6.1,40,4.7,34.9,4.7,28.5c0-4.1,0.8-7.8,2.3-10.9c1.5-3.1,3.7-5.5,6.5-7.2c2.8-1.7,6-2.5,9.7-2.5
		c6.2,0,10.8,1.7,13.7,5.2c2.9,3.4,4.4,8.3,4.4,14.7c0,4.2-0.8,7.9-2.3,11.2c-1.5,3.2-3.7,5.7-6.6,7.5c-2.8,1.8-6.1,2.7-9.9,2.7
		C16.5,49.1,12,47.3,9.1,43.6z M17,15.7c-1.4,2.8-2.1,7.1-2.1,12.7c0,5.8,0.7,10,2.1,12.8c1.4,2.8,3.4,4.2,6,4.2
		c2.6,0,4.5-1.5,6-4.6c1.4-3,2.1-7.4,2.1-13.1c0-5.8-0.7-9.9-2.1-12.5c-1.4-2.6-3.4-3.9-6-3.9C20.4,11.5,18.4,12.9,17,15.7z"/>
	<path class="st0" d="M48,24.2l-3.2-1V19l9.8-1.2h0.2l1.4,1.1v2l-0.1,1.2c1.3-1.2,2.9-2.2,4.8-3c1.9-0.8,4-1.2,6.1-1.2
		c2.2,0,3.9,0.4,5.1,1.2c1.2,0.8,2.1,2,2.7,3.7c0.6,1.7,0.8,4,0.8,6.9v14.8l3,0.4v3.6H64v-3.6l2.6-0.5V29.7c0-1.7-0.1-3.1-0.4-4
		c-0.2-1-0.6-1.6-1.2-2.1c-0.6-0.4-1.4-0.6-2.5-0.6c-1.7,0-3.5,0.8-5.6,2.3v19.2l3,0.5v3.6H45v-3.6l3-0.5V24.2z"/>
	<path class="st0" d="M103.6,48.6c-1.7-0.3-3.4-0.8-5.3-1.3c-1.2-0.4-2.1-0.6-2.6-0.6l0.5-10.1h5l1.4,6.9c0.4,0.5,1.1,0.9,2.2,1.2
		c1.1,0.4,2.3,0.5,3.8,0.5c2.2,0,3.8-0.5,4.9-1.5c1.1-1,1.6-2.3,1.6-4c0-1.2-0.4-2.2-1.1-3.1c-0.7-0.9-1.7-1.7-2.9-2.4
		c-1.2-0.7-2.9-1.6-5.1-2.6c-2.8-1.3-5.2-2.9-7.2-4.9c-2-2-2.9-4.6-2.9-7.9c0-2,0.5-3.9,1.6-5.5c1-1.7,2.6-3,4.8-4
		c2.1-1,4.8-1.5,7.9-1.5c1.9,0,3.6,0.1,5,0.4c1.4,0.3,2.9,0.6,4.6,1c0.9,0.3,1.5,0.5,2,0.5l-0.3,9.6h-4.9l-1.2-6.6
		c-0.3-0.3-0.8-0.6-1.7-0.9c-0.9-0.3-1.9-0.4-2.9-0.4c-2,0-3.5,0.5-4.5,1.4c-1,0.9-1.5,2.1-1.5,3.6c0,1.3,0.4,2.4,1.2,3.4
		c0.8,1,1.8,1.8,3,2.5c1.2,0.7,3,1.6,5.4,2.8c1.9,0.9,3.6,1.9,5,2.8c1.4,1,2.6,2.2,3.6,3.7c1,1.5,1.5,3.3,1.5,5.3
		c0,2-0.5,3.9-1.4,5.7c-1,1.8-2.6,3.4-4.9,4.6c-2.3,1.2-5.3,1.8-9.1,1.8C107.1,49.1,105.3,48.9,103.6,48.6z"/>
	<path class="st0" d="M132,32.6c3.2-1.7,7.5-2.6,12.7-2.6v-1.1c0-1.3-0.1-2.3-0.4-3.1c-0.3-0.8-0.8-1.3-1.6-1.7s-1.9-0.6-3.3-0.6
		c-1.8,0-3.3,0.2-4.7,0.6c-1.4,0.4-2.8,1-4.3,1.6l-1.8-3.9c0.6-0.5,1.5-1,2.8-1.7c1.3-0.7,2.9-1.2,4.7-1.7c1.8-0.5,3.7-0.7,5.7-0.7
		c2.9,0,5.1,0.4,6.8,1.1c1.6,0.8,2.8,1.9,3.5,3.5c0.7,1.6,1.1,3.7,1.1,6.5v16h2.8v3.4c-0.8,0.2-2,0.4-3.5,0.5
		c-1.5,0.2-2.7,0.3-3.8,0.3c-1.4,0-2.3-0.2-2.7-0.6c-0.5-0.4-0.7-1.2-0.7-2.4v-1.2c-0.9,1.1-2.1,2-3.6,2.9c-1.5,0.8-3.3,1.3-5.2,1.3
		c-1.7,0-3.2-0.4-4.6-1.1c-1.4-0.7-2.5-1.8-3.3-3.2c-0.8-1.4-1.2-3-1.2-4.9C127.2,36.7,128.8,34.3,132,32.6z M142.7,43.6
		c0.8-0.4,1.5-0.8,2.1-1.4v-8.6c-2.8,0-4.9,0.5-6.2,1.5c-1.4,1-2,2.3-2,3.9c0,1.6,0.4,2.9,1.1,3.8c0.7,0.9,1.7,1.4,3,1.4
		C141.2,44.1,141.9,43.9,142.7,43.6z"/>
	<path class="st0" d="M161.6,9.5l-3.8-0.7V5.5l10.8-1.3h0.2l1.6,1.1v39.1l3.5,0.5v3.6h-15.7v-3.6l3.5-0.5V9.5z"/>
	<path class="st0" d="M180.3,44.9c-2.4-2.8-3.6-6.6-3.6-11.4c0-3.3,0.6-6.1,1.8-8.5c1.2-2.4,2.9-4.2,5.2-5.4s4.8-1.9,7.8-1.9
		c3.8,0,6.7,1,8.7,2.9c2,1.9,3,4.6,3.1,8.1c0,2.3-0.2,4.2-0.5,5.6h-16.9c0.2,3.1,0.9,5.4,2.2,7c1.3,1.6,3.2,2.4,5.5,2.4
		c1.3,0,2.7-0.2,4.2-0.7c1.5-0.4,2.6-1,3.5-1.5l1.5,3.3c-0.9,1-2.5,2-4.8,3c-2.2,0.9-4.5,1.4-6.9,1.4
		C186.3,49.1,182.7,47.7,180.3,44.9z M194.7,30.7l0.1-2.3c0-2.3-0.3-4-0.9-5.2c-0.6-1.2-1.7-1.8-3.1-1.8c-1.5,0-2.7,0.7-3.5,2
		c-0.8,1.3-1.3,3.7-1.4,7.3H194.7z"/>
</g>
</svg>
