<?xml version="1.0" encoding="utf-8"?>
<!-- Generator: Adobe Illustrator 23.0.4, SVG Export Plug-In . SVG Version: 6.00 Build 0)  -->
<svg version="1.1" id="Laag_1" xmlns="http://www.w3.org/2000/svg" xmlns:xlink="http://www.w3.org/1999/xlink" x="0px" y="0px"
	 viewBox="0 0 235.4 36" style="enable-background:new 0 0 235.4 36;" xml:space="preserve">
<style type="text/css">
	.st0{fill:none;stroke:#FFFFFF;stroke-width:0.5;}
</style>
<g>
	<path class="st0" d="M7,6.9h4.6v13.3c0,1.5,0.2,2.6,0.5,3.2c0.5,1.2,1.7,1.8,3.6,1.8c1.8,0,3-0.6,3.5-1.8c0.4-0.7,0.5-1.8,0.5-3.2
		V6.9h4.6v13.3c0,2.3-0.4,4.1-1.1,5.4c-1.3,2.3-3.9,3.5-7.6,3.5S9.4,27.9,8,25.5C7.3,24.3,7,22.5,7,20.2V6.9z"/>
	<path class="st0" d="M41.2,13.4c1,0.9,1.6,2.3,1.6,4.3v10.8h-4.3v-9.7c0-0.8-0.1-1.5-0.3-1.9c-0.4-0.8-1.2-1.2-2.3-1.2
		c-1.4,0-2.4,0.6-2.9,1.8c-0.3,0.6-0.4,1.4-0.4,2.4v8.6h-4.2V12.6h4v2.3c0.5-0.8,1-1.4,1.5-1.8c0.9-0.6,1.9-1,3.3-1
		C38.8,12.1,40.1,12.6,41.2,13.4z"/>
	<path class="st0" d="M50.9,10.6h-4.2V6.8h4.2V10.6z M46.7,12.5h4.2v16h-4.2V12.5z"/>
	<path class="st0" d="M65.4,12.8c1.1,0.5,2,1.3,2.8,2.4c0.7,0.9,1.1,2,1.3,3.3c0.1,0.7,0.2,1.8,0.1,3.2H57.9
		c0.1,1.6,0.6,2.7,1.7,3.4c0.6,0.4,1.4,0.6,2.3,0.6c1,0,1.7-0.2,2.3-0.7c0.3-0.3,0.6-0.6,0.9-1.1h4.3c-0.1,0.9-0.6,1.9-1.5,2.9
		c-1.4,1.6-3.4,2.3-6,2.3c-2.1,0-4-0.7-5.6-2s-2.4-3.4-2.4-6.4c0-2.8,0.7-4.9,2.2-6.4c1.5-1.5,3.4-2.2,5.7-2.2
		C63,12.1,64.3,12.3,65.4,12.8z M59.1,16.5c-0.6,0.6-1,1.4-1.1,2.5h7.2c-0.1-1.1-0.4-1.9-1.1-2.5c-0.7-0.6-1.5-0.9-2.5-0.9
		C60.5,15.5,59.7,15.8,59.1,16.5z"/>
	<path class="st0" d="M71.6,7h4.1v11.6l5.3-6h5.2l-5.7,5.9l5.9,9.9h-5.1l-3.9-6.8l-1.7,1.8v5h-4.1V7z"/>
	<path class="st0" d="M98.7,12.8c1.1,0.5,2,1.3,2.8,2.4c0.7,0.9,1.1,2,1.3,3.3c0.1,0.7,0.2,1.8,0.1,3.2H91.3
		c0.1,1.6,0.6,2.7,1.7,3.4c0.6,0.4,1.4,0.6,2.3,0.6c1,0,1.7-0.2,2.3-0.7c0.3-0.3,0.6-0.6,0.9-1.1h4.3c-0.1,0.9-0.6,1.9-1.5,2.9
		c-1.4,1.6-3.4,2.3-6,2.3c-2.1,0-4-0.7-5.6-2s-2.4-3.4-2.4-6.4c0-2.8,0.7-4.9,2.2-6.4c1.5-1.5,3.4-2.2,5.7-2.2
		C96.4,12.1,97.6,12.3,98.7,12.8z M92.5,16.5c-0.6,0.6-1,1.4-1.1,2.5h7.2c-0.1-1.1-0.4-1.9-1.1-2.5S96,15.5,95,15.5
		C93.9,15.5,93.1,15.8,92.5,16.5z"/>
	<path class="st0" d="M122.9,18.3c-0.1-0.6-0.3-1.1-0.6-1.6c-0.5-0.6-1.2-1-2.2-1c-1.4,0-2.4,0.7-2.9,2.1c-0.3,0.7-0.4,1.7-0.4,3
		c0,1.2,0.1,2.1,0.4,2.8c0.5,1.3,1.4,2,2.8,2c1,0,1.7-0.3,2.1-0.8s0.7-1.2,0.7-2.1h4.3c-0.1,1.3-0.6,2.5-1.4,3.6
		c-1.3,1.8-3.3,2.7-5.8,2.7s-4.5-0.8-5.7-2.3c-1.2-1.5-1.8-3.5-1.8-5.9c0-2.7,0.7-4.9,2-6.4c1.3-1.5,3.2-2.3,5.5-2.3
		c2,0,3.6,0.4,4.9,1.3c1.3,0.9,2,2.5,2.3,4.8H122.9z"/>
	<path class="st0" d="M143.4,26.5c-1.3,1.7-3.4,2.5-6.1,2.5s-4.8-0.8-6.1-2.5s-2-3.7-2-6c0-2.3,0.7-4.3,2-6s3.4-2.5,6.1-2.5
		s4.8,0.8,6.1,2.5s2,3.7,2,6C145.4,22.9,144.7,24.9,143.4,26.5z M140,24.2c0.7-0.9,1-2.1,1-3.7c0-1.6-0.3-2.8-1-3.7
		s-1.6-1.3-2.8-1.3s-2.2,0.4-2.8,1.3s-1,2.1-1,3.7c0,1.6,0.3,2.8,1,3.7c0.7,0.9,1.6,1.3,2.8,1.3S139.4,25.1,140,24.2z"/>
	<path class="st0" d="M152.6,28.5h-4.2V6.9h4.2V28.5z"/>
	<path class="st0" d="M161,28.5h-4.2V6.9h4.2V28.5z"/>
	<path class="st0" d="M175.4,12.8c1.1,0.5,2,1.3,2.8,2.4c0.7,0.9,1.1,2,1.3,3.3c0.1,0.7,0.2,1.8,0.1,3.2H168
		c0.1,1.6,0.6,2.7,1.7,3.4c0.6,0.4,1.4,0.6,2.3,0.6c1,0,1.7-0.2,2.3-0.7c0.3-0.3,0.6-0.6,0.9-1.1h4.3c-0.1,0.9-0.6,1.9-1.5,2.9
		c-1.4,1.6-3.4,2.3-6,2.3c-2.1,0-4-0.7-5.6-2s-2.4-3.4-2.4-6.4c0-2.8,0.7-4.9,2.2-6.4c1.5-1.5,3.4-2.2,5.7-2.2
		C173.1,12.1,174.3,12.3,175.4,12.8z M169.2,16.5c-0.6,0.6-1,1.4-1.1,2.5h7.2c-0.1-1.1-0.4-1.9-1.1-2.5s-1.5-0.9-2.5-0.9
		C170.6,15.5,169.8,15.8,169.2,16.5z"/>
	<path class="st0" d="M191.3,18.3c-0.1-0.6-0.3-1.1-0.6-1.6c-0.5-0.6-1.2-1-2.2-1c-1.4,0-2.4,0.7-2.9,2.1c-0.3,0.7-0.4,1.7-0.4,3
		c0,1.2,0.1,2.1,0.4,2.8c0.5,1.3,1.4,2,2.8,2c1,0,1.7-0.3,2.1-0.8s0.7-1.2,0.7-2.1h4.3c-0.1,1.3-0.6,2.5-1.4,3.6
		c-1.3,1.8-3.3,2.7-5.8,2.7s-4.5-0.8-5.7-2.3c-1.2-1.5-1.8-3.5-1.8-5.9c0-2.7,0.7-4.9,2-6.4c1.3-1.5,3.2-2.3,5.5-2.3
		c2,0,3.6,0.4,4.9,1.3c1.3,0.9,2,2.5,2.3,4.8H191.3z"/>
	<path class="st0" d="M196.8,15.6v-3h2.2V8.2h4.1v4.5h2.6v3h-2.6v8.4c0,0.7,0.1,1.1,0.2,1.2s0.7,0.2,1.5,0.2c0.1,0,0.3,0,0.4,0
		s0.3,0,0.4,0v3.1l-2,0.1c-2,0.1-3.3-0.3-4-1c-0.5-0.5-0.7-1.2-0.7-2.2v-9.8H196.8z"/>
	<path class="st0" d="M212.7,10.6h-4.2V6.8h4.2V10.6z M208.5,12.5h4.2v16h-4.2V12.5z"/>
	<path class="st0" d="M227.1,12.8c1.1,0.5,2,1.3,2.8,2.4c0.7,0.9,1.1,2,1.3,3.3c0.1,0.7,0.2,1.8,0.1,3.2h-11.6
		c0.1,1.6,0.6,2.7,1.7,3.4c0.6,0.4,1.4,0.6,2.3,0.6c1,0,1.7-0.2,2.3-0.7c0.3-0.3,0.6-0.6,0.9-1.1h4.3c-0.1,0.9-0.6,1.9-1.5,2.9
		c-1.4,1.6-3.4,2.3-6,2.3c-2.1,0-4-0.7-5.6-2s-2.4-3.4-2.4-6.4c0-2.8,0.7-4.9,2.2-6.4c1.5-1.5,3.4-2.2,5.7-2.2
		C224.8,12.1,226,12.3,227.1,12.8z M220.9,16.5c-0.6,0.6-1,1.4-1.1,2.5h7.2c-0.1-1.1-0.4-1.9-1.1-2.5s-1.5-0.9-2.5-0.9
		C222.3,15.5,221.5,15.8,220.9,16.5z"/>
</g>
</svg>
