<?xml version="1.0" encoding="utf-8"?>
<!-- Generator: Adobe Illustrator 23.0.4, SVG Export Plug-In . SVG Version: 6.00 Build 0)  -->
<svg version="1.1" id="Laag_1" xmlns="http://www.w3.org/2000/svg" xmlns:xlink="http://www.w3.org/1999/xlink" x="0px" y="0px"
	 viewBox="0 0 80.6 65.1" style="enable-background:new 0 0 80.6 65.1;" xml:space="preserve">
<style type="text/css">
	.st0{fill:#1C4294;}
	.st1{fill:#FFFFFF;}
	.st2{fill:#D42D1E;}
	.st3{enable-background:new    ;}
</style>
<g id="Rectangle_4">
	<path class="st0" d="M16.6,10.2h48.7c1.7,0,3,1.3,3,3v40.5c0,1.7-1.3,3-3,3H16.6c-1.7,0-3-1.3-3-3V13.2
		C13.6,11.5,15,10.2,16.6,10.2z"/>
</g>
<g id="_004-shopping-bag" transform="translate(14.17 4.29)">
	<g id="Path_61">
		<path class="st1" d="M40,20.2h-6.1v-3.5c0-3.6-2.9-6.5-6.5-6.5s-6.5,2.9-6.5,6.5v3.5h-6.5c-0.4,0-0.7,0.3-0.7,0.7c0,0,0,0,0,0v17
			c0,3.7,3,6.7,6.7,6.7H34c3.7,0,6.7-3,6.7-6.7v-17C40.8,20.5,40.4,20.2,40,20.2C40,20.2,40,20.2,40,20.2z M22.4,16.7
			c0-2.8,2.2-5,5-5s5,2.2,5,5v3.5h-10V16.7z M39.3,37.9c0,2.9-2.3,5.2-5.2,5.2H20.4c-2.9,0-5.2-2.3-5.2-5.2V21.7h5.8V30
			c0,0.4,0.3,0.7,0.7,0.7c0.4,0,0.7-0.3,0.7-0.7l0,0v-8.4h10V30c0,0.4,0.3,0.7,0.7,0.7c0.4,0,0.7-0.3,0.7-0.7v-8.4h5.4V37.9z"/>
	</g>
</g>
<g id="Ellipse_3">
	<circle class="st2" cx="54.9" cy="42.9" r="9"/>
</g>
<g class="st3">
	<path class="st1" d="M54.8,48.4c-0.7,0-1.2-0.1-1.7-0.4c-0.4-0.3-0.8-0.6-1.1-1.1c-0.3-0.5-0.5-1-0.6-1.6c-0.1-0.6-0.2-1.3-0.2-2
		c0-0.7,0.1-1.4,0.2-2c0.1-0.6,0.3-1.2,0.6-1.6c0.3-0.5,0.6-0.8,1.1-1.1c0.4-0.3,1-0.4,1.7-0.4s1.2,0.1,1.7,0.4
		c0.4,0.3,0.8,0.6,1.1,1.1c0.3,0.5,0.5,1,0.6,1.6c0.1,0.6,0.2,1.3,0.2,2c0,0.7-0.1,1.4-0.2,2c-0.1,0.6-0.3,1.2-0.6,1.6
		c-0.3,0.5-0.6,0.8-1.1,1.1C56.1,48.3,55.5,48.4,54.8,48.4z M54.8,47.2c0.4,0,0.7-0.1,1-0.3c0.3-0.2,0.5-0.5,0.6-0.8
		c0.2-0.3,0.3-0.8,0.3-1.2c0.1-0.5,0.1-1,0.1-1.5c0-0.5,0-1-0.1-1.5c-0.1-0.5-0.2-0.9-0.3-1.2s-0.4-0.6-0.6-0.8
		c-0.3-0.2-0.6-0.3-1-0.3s-0.7,0.1-1,0.3c-0.3,0.2-0.5,0.5-0.6,0.8s-0.3,0.8-0.3,1.2s-0.1,1-0.1,1.5c0,0.5,0,1,0.1,1.5
		c0.1,0.5,0.2,0.9,0.3,1.2c0.2,0.3,0.4,0.6,0.6,0.8C54.1,47.1,54.4,47.2,54.8,47.2z"/>
</g>
</svg>
